<?xml version="1.0" encoding="utf-8"?>
<svg viewBox="0 0 24 24" width="30px" height="30px" fill="none" xmlns="http://www.w3.org/2000/svg">
  <path d="M 3 21 C 3 21.552 3.448 22 4 22 C 4.552 22 5 21.552 5 21 L 3 21 Z M 12.99 14.213 C 13.068 13.666 12.688 13.159 12.142 13.081 L 11.858 15.061 L 12.99 14.213 Z M 14 7 C 14 8.657 12.657 10 11 10 L 11 12 C 13.761 12 16 9.761 16 7 L 14 7 Z M 11 10 C 9.343 10 8 8.657 8 7 L 6 7 C 6 9.761 8.239 12 11 12 L 11 10 Z M 8 7 C 8 5.343 9.343 4 11 4 L 11 2 C 8.239 2 6 4.239 6 7 L 8 7 Z M 11 4 C 12.657 4 14 5.343 14 7 L 16 7 C 16 4.239 13.761 2 11 2 L 11 4 Z M 5 21 C 5 17.686 7.686 15 11 15 L 11 13 C 6.582 13 3 16.582 3 21 L 5 21 Z M 11 15 C 11.292 15 11.579 15.021 11.858 15.061 L 12.142 13.081 C 11.768 13.028 11.387 13 11 13 L 11 15 Z" fill="#fff" transform="matrix(1, 0, 0, 1, 4.440892098500626e-16, 4.440892098500626e-16)"/>
  <path d="M 12.73 20.888 L 13.016 19.888 M 16.73 20.888 L 16.444 19.888 M 13.016 19.888 L 13.561 17.98 C 13.91 16.758 14.084 16.147 14.354 15.994 C 14.587 15.861 14.873 15.861 15.106 15.994 C 15.375 16.147 15.55 16.758 15.899 17.98 L 16.444 19.888 M 13.016 19.888 L 16.444 19.888" stroke="#fff" stroke-width="2" stroke-linecap="round" stroke-linejoin="round" transform="matrix(1, 0, 0, 1, 4.440892098500626e-16, 4.440892098500626e-16)"/>
</svg>
