<?xml version="1.0" encoding="utf-8"?>
<svg viewBox="0 0 24 24" width="30px" height="30px" fill="none" xmlns="http://www.w3.org/2000/svg">
  <path d="M8 5.00005C7.01165 5.00082 6.49359 5.01338 6.09202 5.21799C5.71569 5.40973 5.40973 5.71569 5.21799 6.09202C5 6.51984 5 7.07989 5 8.2V17.8C5 18.9201 5 19.4802 5.21799 19.908C5.40973 20.2843 5.71569 20.5903 6.09202 20.782C6.51984 21 7.07989 21 8.2 21H15.8C16.9201 21 17.4802 21 17.908 20.782C18.2843 20.5903 18.5903 20.2843 18.782 19.908C19 19.4802 19 18.9201 19 17.8V8.2C19 7.07989 19 6.51984 18.782 6.09202C18.5903 5.71569 18.2843 5.40973 17.908 5.21799C17.5064 5.01338 16.9884 5.00082 16 5.00005M8 5.00005V7H16V5.00005M8 5.00005V4.70711C8 4.25435 8.17986 3.82014 8.5 3.5C8.82014 3.17986 9.25435 3 9.70711 3H14.2929C14.7456 3 15.1799 3.17986 15.5 3.5C15.8201 3.82014 16 4.25435 16 4.70711V5.00005" stroke="#fff" stroke-width="2" stroke-linecap="round" stroke-linejoin="round" transform="matrix(1, 0, 0, 1, 4.440892098500626e-16, 4.440892098500626e-16)"/>
  <path d="M 7.134 9.966 C 7.134 9.624 7.134 9.452 7.201 9.323 C 7.259 9.208 7.353 9.114 7.468 9.056 C 7.597 8.989 7.769 8.989 8.111 8.989 L 9.819 8.989 C 10.161 8.989 10.332 8.989 10.462 9.056 C 10.577 9.114 10.671 9.208 10.729 9.323 C 10.796 9.452 10.796 9.624 10.796 9.966 L 10.796 12.895 C 10.796 13.236 10.796 13.407 10.729 13.538 C 10.671 13.652 10.577 13.746 10.462 13.805 C 10.332 13.871 10.161 13.871 9.819 13.871 L 8.111 13.871 C 7.769 13.871 7.597 13.871 7.468 13.805 C 7.353 13.746 7.259 13.652 7.201 13.538 C 7.134 13.407 7.134 13.236 7.134 12.895 L 7.134 9.966 Z" stroke="#fff" stroke-linecap="round" stroke-linejoin="round" style="stroke-width: 1.5px;" transform="matrix(1, 0, 0, 1, 4.440892098500626e-16, 4.440892098500626e-16)"/>
  <path d="M 7.134 17.289 C 7.134 16.947 7.134 16.776 7.201 16.645 C 7.259 16.531 7.353 16.437 7.468 16.379 C 7.597 16.312 7.769 16.312 8.111 16.312 L 9.819 16.312 C 10.161 16.312 10.332 16.312 10.462 16.379 C 10.577 16.437 10.671 16.531 10.729 16.645 C 10.796 16.776 10.796 16.947 10.796 17.289 L 10.796 17.777 C 10.796 18.118 10.796 18.289 10.729 18.42 C 10.671 18.535 10.577 18.628 10.462 18.687 C 10.332 18.754 10.161 18.754 9.819 18.754 L 8.111 18.754 C 7.769 18.754 7.597 18.754 7.468 18.687 C 7.353 18.628 7.259 18.535 7.201 18.42 C 7.134 18.289 7.134 18.118 7.134 17.777 L 7.134 17.289 Z" stroke="#fff" stroke-linecap="round" stroke-linejoin="round" style="stroke-width: 1.5px;" transform="matrix(1, 0, 0, 1, 4.440892098500626e-16, 4.440892098500626e-16)"/>
  <path d="M 13.237 9.966 C 13.237 9.624 13.237 9.452 13.303 9.323 C 13.362 9.208 13.455 9.114 13.57 9.056 C 13.7 8.989 13.871 8.989 14.213 8.989 L 15.922 8.989 C 16.263 8.989 16.434 8.989 16.565 9.056 C 16.68 9.114 16.773 9.208 16.832 9.323 C 16.899 9.452 16.899 9.624 16.899 9.966 L 16.899 10.454 C 16.899 10.795 16.899 10.966 16.832 11.097 C 16.773 11.212 16.68 11.305 16.565 11.364 C 16.434 11.43 16.263 11.43 15.922 11.43 L 14.213 11.43 C 13.871 11.43 13.7 11.43 13.57 11.364 C 13.455 11.305 13.362 11.212 13.303 11.097 C 13.237 10.966 13.237 10.795 13.237 10.454 L 13.237 9.966 Z" stroke="#fff" stroke-linecap="round" stroke-linejoin="round" style="stroke-width: 1.5px;" transform="matrix(1, 0, 0, 1, 4.440892098500626e-16, 4.440892098500626e-16)"/>
  <path d="M 14.875 13.633 L 14.933 13.633 M 14.875 18.206 L 14.875 15.593" stroke="#fff" stroke-linecap="round" stroke-linejoin="round" style="stroke-width: 1.5px; transform-origin: 14.904px 15.9195px;" transform="matrix(-1, 0, 0, -1, 0.000002795696, -0.000002865819)"/>
</svg>
