<?xml version="1.0" encoding="utf-8"?>
<svg viewBox="0 0 24 24" width="30px" height="30px" fill="none" xmlns="http://www.w3.org/2000/svg">
  <path d="M8 5.00005C7.01165 5.00082 6.49359 5.01338 6.09202 5.21799C5.71569 5.40973 5.40973 5.71569 5.21799 6.09202C5 6.51984 5 7.07989 5 8.2V17.8C5 18.9201 5 19.4802 5.21799 19.908C5.40973 20.2843 5.71569 20.5903 6.09202 20.782C6.51984 21 7.07989 21 8.2 21H15.8C16.9201 21 17.4802 21 17.908 20.782C18.2843 20.5903 18.5903 20.2843 18.782 19.908C19 19.4802 19 18.9201 19 17.8V8.2C19 7.07989 19 6.51984 18.782 6.09202C18.5903 5.71569 18.2843 5.40973 17.908 5.21799C17.5064 5.01338 16.9884 5.00082 16 5.00005M8 5.00005V7H16V5.00005M8 5.00005V4.70711C8 4.25435 8.17986 3.82014 8.5 3.5C8.82014 3.17986 9.25435 3 9.70711 3H14.2929C14.7456 3 15.1799 3.17986 15.5 3.5C15.8201 3.82014 16 4.25435 16 4.70711V5.00005" stroke="#fff" stroke-width="2" stroke-linecap="round" stroke-linejoin="round" transform="matrix(1, 0, 0, 1, 4.440892098500626e-16, 4.440892098500626e-16)"/>
  <path d="M 17.057 9.033 L 13.242 12.303 L 11.063 10.123 L 7.248 13.393 M 8.065 18.842 C 7.614 18.842 7.248 18.476 7.248 18.025 L 7.248 16.935 C 7.248 16.483 7.614 16.117 8.065 16.117 C 8.517 16.117 8.883 16.483 8.883 16.935 L 8.883 18.025 C 8.883 18.476 8.517 18.842 8.065 18.842 Z M 11.88 18.842 C 11.429 18.842 11.063 18.476 11.063 18.025 L 11.063 15.3 C 11.063 14.849 11.429 14.482 11.88 14.482 C 12.331 14.482 12.697 14.849 12.697 15.3 L 12.697 18.025 C 12.697 18.476 12.331 18.842 11.88 18.842 Z M 15.695 18.842 C 15.243 18.842 14.877 18.476 14.877 18.025 L 14.877 16.39 C 14.877 15.939 15.243 15.572 15.695 15.572 C 16.146 15.572 16.512 15.939 16.512 16.39 L 16.512 18.025 C 16.512 18.476 16.146 18.842 15.695 18.842 Z" stroke="#fff" stroke-linecap="round" stroke-linejoin="round" style="stroke-width: 1.5px;" transform="matrix(1, 0, 0, 1, 4.440892098500626e-16, 4.440892098500626e-16)"/>
</svg>
