<?xml version="1.0" encoding="utf-8"?>
<svg viewBox="0 0 24 24" width="30px" height="30px" fill="none" xmlns="http://www.w3.org/2000/svg">
  <path d="M 21 5 L 19 12 L 7.377 12 M 20 16 L 8 16 L 6 3 L 3 3 M 9 20 C 9 20.552 8.552 21 8 21 C 7.448 21 7 20.552 7 20 C 7 19.448 7.448 19 8 19 C 8.552 19 9 19.448 9 20 Z M 20 20 C 20 20.552 19.552 21 19 21 C 18.448 21 18 20.552 18 20 C 18 19.448 18.448 19 19 19 C 19.552 19 20 19.448 20 20 Z" stroke="#fff" stroke-width="2" stroke-linecap="round" stroke-linejoin="round" transform="matrix(1, 0, 0, 1, 4.440892098500626e-16, 4.440892098500626e-16)"/>
  <path d="M 16.685 6.809 L 10.685 6.809 L 10.685 8.809 M 16.685 6.809 L 14.685 4.809 M 16.685 6.809 L 14.685 8.809" stroke="#fff" stroke-width="2" stroke-linecap="round" stroke-linejoin="round" transform="matrix(1, 0, 0, 1, 4.440892098500626e-16, 4.440892098500626e-16)"/>
</svg>
