<?xml version="1.0" encoding="utf-8"?>
<svg viewBox="0 0 24 24" width="30px" height="30px" fill="none" xmlns="http://www.w3.org/2000/svg">
  <path d="M 13.471 11.933 L 7.377 12 M 20 16 L 8 16 L 6 3 L 3 3 M 9 20 C 9 20.552 8.552 21 8 21 C 7.448 21 7 20.552 7 20 C 7 19.448 7.448 19 8 19 C 8.552 19 9 19.448 9 20 Z M 20 20 C 20 20.552 19.552 21 19 21 C 18.448 21 18 20.552 18 20 C 18 19.448 18.448 19 19 19 C 19.552 19 20 19.448 20 20 Z" stroke="#fff" stroke-width="2" stroke-linecap="round" stroke-linejoin="round" transform="matrix(1, 0, 0, 1, 4.440892098500626e-16, 4.440892098500626e-16)"/>
  <path d="M 18.431 9.961 L 18.431 11.101 L 19.574 11.101 M 21.479 11.101 C 21.479 12.784 20.114 14.147 18.431 14.147 C 16.749 14.147 15.383 12.784 15.383 11.101 C 15.383 9.418 16.749 8.054 18.431 8.054 C 20.114 8.054 21.479 9.418 21.479 11.101 Z" stroke="#fff" stroke-linecap="round" stroke-linejoin="round" style="stroke-width: 1.5px; transform-origin: 18.431px 11.1005px;" transform="matrix(0.999821126461, -0.018946003169, 0.018946003169, 0.999821126461, 0.000001106196, 6.32311e-7)"/>
  <path d="M 21.18 6.892 L 21.82 5.038" stroke="#fff" stroke-width="2" stroke-linecap="round" stroke-linejoin="round" style="" transform="matrix(1, 0, 0, 1, 4.440892098500626e-16, 4.440892098500626e-16)"/>
  <path d="M 10.719 5.287 L 12.719 3.287 M 12.719 3.287 L 14.719 5.287 M 12.719 3.287 L 12.719 9.287" stroke="#fff" stroke-width="2" stroke-linecap="round" stroke-linejoin="round" style="" transform="matrix(1, 0, 0, 1, 4.440892098500626e-16, 4.440892098500626e-16)"/>
</svg>
