<?xml version="1.0" encoding="utf-8"?>
<svg viewBox="0 0 24 24" width="30px" height="30px" fill="none" xmlns="http://www.w3.org/2000/svg">
  <path d="M 20.5 9 C 19 5 15.533 3.001 11.999 3.001 C 7.367 3.001 3.553 6.501 3.055 11 M 20.943 13.005 C 20.443 17.503 16.63 21 11.999 21 C 8.467 21 5 19 3.5 15 M 21 5 L 21 9 L 17 9 M 3 19 L 3 15 L 7 15" stroke="#fff" stroke-width="2" stroke-linecap="round" stroke-linejoin="round" transform="matrix(1, 0, 0, 1, 4.440892098500626e-16, 4.440892098500626e-16)"/>
  <path d="M 15.808 10.984 L 15.093 14.556 C 15.005 14.996 14.961 15.216 14.846 15.381 C 14.745 15.526 14.606 15.64 14.443 15.711 C 14.259 15.792 14.034 15.792 13.585 15.792 L 10.338 15.792 C 9.888 15.792 9.664 15.792 9.48 15.711 C 9.317 15.64 9.178 15.526 9.076 15.381 C 8.961 15.216 8.917 14.996 8.829 14.556 L 8.115 10.984 M 15.808 10.984 L 14.845 10.984 M 15.808 10.984 L 16.288 10.984 M 8.115 10.984 L 7.634 10.984 M 8.115 10.984 L 9.077 10.984 M 9.077 10.984 L 14.845 10.984 M 9.077 10.984 L 10.518 8.099 M 14.845 10.984 L 13.404 8.099 M 10.518 12.426 L 10.518 13.868 M 11.961 12.426 L 11.961 13.868 M 13.404 12.426 L 13.404 13.868" stroke="#fff" stroke-linecap="round" stroke-linejoin="round" style="stroke-width: 1.2px;" transform="matrix(1, 0, 0, 1, 4.440892098500626e-16, 4.440892098500626e-16)"/>
</svg>
