<?xml version="1.0" encoding="utf-8"?>
<svg viewBox="0 0 24 24" width="30px" height="30px" fill="none" xmlns="http://www.w3.org/2000/svg">
  <path d="M 20.5 9 C 19 5 15.533 3.001 11.999 3.001 C 7.367 3.001 3.553 6.501 3.055 11 M 20.943 13.005 C 20.443 17.503 16.63 21 11.999 21 C 8.467 21 5 19 3.5 15 M 21 5 L 21 9 L 17 9 M 3 19 L 3 15 L 7 15" stroke="#fff" stroke-width="2" stroke-linecap="round" stroke-linejoin="round" transform="matrix(1, 0, 0, 1, 4.440892098500626e-16, 4.440892098500626e-16)"/>
  <path d="M 14.101 9.685 C 13.601 9.561 12.01 9.553 11.701 9.561 C 10.894 9.586 10.103 9.922 10.101 10.873 C 10.099 11.885 11.101 12.185 12.101 12.185 C 13.101 12.185 14.101 12.416 14.101 13.498 C 14.101 14.31 13.294 14.666 12.287 14.784 C 11.487 14.784 11.101 14.81 10.101 14.685 M 12.101 15.185 L 12.101 16.185 M 12.101 8.185 L 12.101 9.185" stroke="#fff" stroke-width="2" stroke-linecap="round" stroke-linejoin="round" transform="matrix(1, 0, 0, 1, 4.440892098500626e-16, 4.440892098500626e-16)"/>
</svg>
